<svg width="25" height="20" viewBox="0 0 25 20" fill="none" xmlns="http://www.w3.org/2000/svg">
<path d="M1.83333 3.16667H23.1667C23.5203 3.16667 23.8594 3.02619 24.1095 2.77614C24.3595 2.52609 24.5 2.18696 24.5 1.83333C24.5 1.47971 24.3595 1.14057 24.1095 0.890523C23.8594 0.640475 23.5203 0.5 23.1667 0.5H1.83333C1.47971 0.5 1.14057 0.640475 0.890525 0.890523C0.640476 1.14057 0.5 1.47971 0.5 1.83333C0.5 2.18696 0.640476 2.52609 0.890525 2.77614C1.14057 3.02619 1.47971 3.16667 1.83333 3.16667V3.16667Z" fill="#27B7BF"/>
<path d="M1.83333 11.1667H23.1667C23.5203 11.1667 23.8594 11.0262 24.1095 10.7761C24.3595 10.5261 24.5 10.187 24.5 9.83333C24.5 9.47971 24.3595 9.14057 24.1095 8.89052C23.8594 8.64047 23.5203 8.5 23.1667 8.5H1.83333C1.47971 8.5 1.14057 8.64047 0.890525 8.89052C0.640476 9.14057 0.5 9.47971 0.5 9.83333C0.5 10.187 0.640476 10.5261 0.890525 10.7761C1.14057 11.0262 1.47971 11.1667 1.83333 11.1667V11.1667Z" fill="#27B7BF"/>
<path d="M1.83333 19.1667H23.1667C23.5203 19.1667 23.8594 19.0262 24.1095 18.7761C24.3595 18.5261 24.5 18.187 24.5 17.8333C24.5 17.4797 24.3595 17.1406 24.1095 16.8905C23.8594 16.6405 23.5203 16.5 23.1667 16.5H1.83333C1.47971 16.5 1.14057 16.6405 0.890525 16.8905C0.640476 17.1406 0.5 17.4797 0.5 17.8333C0.5 18.187 0.640476 18.5261 0.890525 18.7761C1.14057 19.0262 1.47971 19.1667 1.83333 19.1667V19.1667Z" fill="#27B7BF"/>
</svg>
