<svg width="896" height="883" viewBox="0 0 896 883" fill="none" xmlns="http://www.w3.org/2000/svg">
<path d="M2 232.16C21.4999 251.66 40 270.66 40 270.66C40 270.66 173.5 58.3192 442 54.6601C728.5 50.7557 857.5 270.66 857.5 270.66C857.5 270.66 874 255.66 896 232.66C724.5 -14.3399 442 0.16008 442 0.16008C442 0.16008 174.5 -10.3399 2 232.16Z" fill="#27B7BF"/>
<path d="M0 650.142C19.4999 630.642 38 611.642 38 611.642C38 611.642 171.5 823.983 440 827.642C726.5 831.546 855.5 611.642 855.5 611.642C855.5 611.642 872 626.642 894 649.642C722.5 896.642 440 882.142 440 882.142C440 882.142 172.5 892.642 0 650.142Z" fill="#27B7BF"/>
<path d="M203 438.833C264.5 438.833 264.5 438.833 264.5 438.833C264.5 438.833 319 336.833 446.479 332.833C578.5 335.833 631 439.833 631 439.833C631 439.833 634.5 439.833 692.5 439.833C612 271.333 446.479 279.054 446.479 279.054C446.479 279.054 280 274.333 203 438.833Z" fill="#27B7BF"/>
<path d="M203 438.833C264.5 438.833 264.5 438.833 264.5 438.833C264.5 438.833 319 542.832 446.479 546.832C578.5 543.832 631 439.833 631 439.833C631 439.833 634.5 439.833 692.5 439.833C612 608.332 446.479 600.611 446.479 600.611C446.479 600.611 280 603.333 203 438.833Z" fill="#27B7BF"/>
<path d="M103 336.081C120.297 352.148 140.5 375.802 140.5 375.802C140.5 375.802 238.5 192.579 446.5 196.302C670 200.302 756.5 377.302 756.5 377.302C756.5 377.302 775.986 355.752 795.5 336.802C659 125.802 446.5 142.302 446.5 142.302C446.5 142.302 232 130.802 103 336.081Z" fill="#27B7BF"/>
<path d="M101 546.221C118.297 530.154 138.5 506.5 138.5 506.5C138.5 506.5 236.5 689.723 444.5 686C668 682 754.5 505 754.5 505C754.5 505 773.986 526.55 793.5 545.5C657 756.5 444.5 740 444.5 740C444.5 740 230 751.5 101 546.221Z" fill="#27B7BF"/>
<circle cx="448" cy="439.833" r="51" fill="#27B7BF"/>
</svg>
